<svg xmlns="http://www.w3.org/2000/svg" width="325.600mm" height="50.100mm" viewBox="0 0 325.600 50.100"><g transform="translate(0 50.100) scale(1 -1)"><g id="sample-box.top" transform="translate(0.000 0)"><path d="M 0.000 3.050 L 0.050 0.000 L 3.050 0.000 L 8.100 0.050 L 8.050 3.000 L 13.000 3.050 L 13.050 0.000 L 18.100 0.050 L 18.050 3.000 L 23.000 3.050 L 23.050 0.000 L 28.100 0.050 L 28.050 3.000 L 33.000 3.050 L 33.050 0.000 L 38.100 0.050 L 38.050 3.000 L 43.000 3.050 L 43.050 0.000 L 47.050 0.000 L 50.100 0.050 L 50.100 3.050 L 50.050 8.100 L 47.100 8.050 L 47.050 13.000 L 50.100 13.050 L 50.050 18.100 L 47.100 18.050 L 47.050 23.000 L 50.100 23.050 L 50.050 28.100 L 47.100 28.050 L 47.050 33.000 L 50.100 33.050 L 50.050 38.100 L 47.100 38.050 L 47.050 43.000 L 50.100 43.050 L 50.100 47.050 L 50.050 50.100 L 47.050 50.100 L 43.000 50.050 L 43.050 47.100 L 38.100 47.050 L 38.050 50.100 L 33.000 50.050 L 33.050 47.100 L 28.100 47.050 L 28.050 50.100 L 23.000 50.050 L 23.050 47.100 L 18.100 47.050 L 18.050 50.100 L 13.000 50.050 L 13.050 47.100 L 8.100 47.050 L 8.050 50.100 L 3.050 50.100 L 0.000 50.050 L 0.000 47.050 L 0.050 43.000 L 3.000 43.050 L 3.050 38.100 L 0.000 38.050 L 0.050 33.000 L 3.000 33.050 L 3.050 28.100 L 0.000 28.050 L 0.050 23.000 L 3.000 23.050 L 3.050 18.100 L 0.000 18.050 L 0.050 13.000 L 3.000 13.050 L 3.050 8.100 L 0.000 8.050 L 0.000 3.050 Z" stroke="red" stroke-width="0.100" fill="none"/></g><g id="sample-box.bottom" transform="translate(55.100 0)"><path d="M 0.000 3.050 L 0.050 0.000 L 3.050 0.000 L 8.100 0.050 L 8.050 3.000 L 13.000 3.050 L 13.050 0.000 L 18.100 0.050 L 18.050 3.000 L 23.000 3.050 L 23.050 0.000 L 28.100 0.050 L 28.050 3.000 L 33.000 3.050 L 33.050 0.000 L 38.100 0.050 L 38.050 3.000 L 43.000 3.050 L 43.050 0.000 L 47.050 0.000 L 50.100 0.050 L 50.100 3.050 L 50.050 8.100 L 47.100 8.050 L 47.050 13.000 L 50.100 13.050 L 50.050 18.100 L 47.100 18.050 L 47.050 23.000 L 50.100 23.050 L 50.050 28.100 L 47.100 28.050 L 47.050 33.000 L 50.100 33.050 L 50.050 38.100 L 47.100 38.050 L 47.050 43.000 L 50.100 43.050 L 50.100 47.050 L 50.050 50.100 L 47.050 50.100 L 43.000 50.050 L 43.050 47.100 L 38.100 47.050 L 38.050 50.100 L 33.000 50.050 L 33.050 47.100 L 28.100 47.050 L 28.050 50.100 L 23.000 50.050 L 23.050 47.100 L 18.100 47.050 L 18.050 50.100 L 13.000 50.050 L 13.050 47.100 L 8.100 47.050 L 8.050 50.100 L 3.050 50.100 L 0.000 50.050 L 0.000 47.050 L 0.050 43.000 L 3.000 43.050 L 3.050 38.100 L 0.000 38.050 L 0.050 33.000 L 3.000 33.050 L 3.050 28.100 L 0.000 28.050 L 0.050 23.000 L 3.000 23.050 L 3.050 18.100 L 0.000 18.050 L 0.050 13.000 L 3.000 13.050 L 3.050 8.100 L 0.000 8.050 L 0.000 3.050 Z" stroke="red" stroke-width="0.100" fill="none"/></g><g id="sample-box.left" transform="translate(110.200 0)"><path d="M 0.050 3.000 L 3.000 3.050 L 3.100 0.050 L 3.050 3.000 L 8.000 3.050 L 8.050 0.000 L 13.100 0.050 L 13.050 3.000 L 18.000 3.050 L 18.050 0.000 L 23.100 0.050 L 23.050 3.000 L 28.000 3.050 L 28.050 0.000 L 33.100 0.050 L 33.050 3.000 L 38.000 3.050 L 38.050 0.000 L 43.100 0.050 L 43.050 3.000 L 47.000 3.050 L 47.100 0.050 L 47.050 3.000 L 50.050 3.100 L 47.100 3.050 L 47.050 8.000 L 50.100 8.050 L 50.050 13.100 L 47.100 13.050 L 47.050 18.000 L 50.100 18.050 L 50.050 23.100 L 47.100 23.050 L 47.050 28.000 L 50.100 28.050 L 50.050 33.100 L 47.100 33.050 L 47.050 38.000 L 50.100 38.050 L 50.050 43.100 L 47.100 43.050 L 47.050 47.000 L 50.050 47.100 L 47.100 47.050 L 47.000 50.050 L 47.050 47.100 L 43.100 47.050 L 43.050 50.100 L 38.000 50.050 L 38.050 47.100 L 33.100 47.050 L 33.050 50.100 L 28.000 50.050 L 28.050 47.100 L 23.100 47.050 L 23.050 50.100 L 18.000 50.050 L 18.050 47.100 L 13.100 47.050 L 13.050 50.100 L 8.000 50.050 L 8.050 47.100 L 3.100 47.050 L 3.000 50.050 L 3.050 47.100 L 0.050 47.000 L 3.000 47.050 L 3.050 43.100 L 0.000 43.050 L 0.050 38.000 L 3.000 38.050 L 3.050 33.100 L 0.000 33.050 L 0.050 28.000 L 3.000 28.050 L 3.050 23.100 L 0.000 23.050 L 0.050 18.000 L 3.000 18.050 L 3.050 13.100 L 0.000 13.050 L 0.050 8.000 L 3.000 8.050 L 3.050 3.100 L 0.050 3.100 Z" stroke="red" stroke-width="0.100" fill="none"/></g><g id="sample-box.right" transform="translate(165.300 0)"><path d="M 0.050 3.000 L 3.000 3.050 L 3.100 0.050 L 3.050 3.000 L 8.000 3.050 L 8.050 0.000 L 13.100 0.050 L 13.050 3.000 L 18.000 3.050 L 18.050 0.000 L 23.100 0.050 L 23.050 3.000 L 28.000 3.050 L 28.050 0.000 L 33.100 0.050 L 33.050 3.000 L 38.000 3.050 L 38.050 0.000 L 43.100 0.050 L 43.050 3.000 L 47.000 3.050 L 47.100 0.050 L 47.050 3.000 L 50.050 3.100 L 47.100 3.050 L 47.050 8.000 L 50.100 8.050 L 50.050 13.100 L 47.100 13.050 L 47.050 18.000 L 50.100 18.050 L 50.050 23.100 L 47.100 23.050 L 47.050 28.000 L 50.100 28.050 L 50.050 33.100 L 47.100 33.050 L 47.050 38.000 L 50.100 38.050 L 50.050 43.100 L 47.100 43.050 L 47.050 47.000 L 50.050 47.100 L 47.100 47.050 L 47.000 50.050 L 47.050 47.100 L 43.100 47.050 L 43.050 50.100 L 38.000 50.050 L 38.050 47.100 L 33.100 47.050 L 33.050 50.100 L 28.000 50.050 L 28.050 47.100 L 23.100 47.050 L 23.050 50.100 L 18.000 50.050 L 18.050 47.100 L 13.100 47.050 L 13.050 50.100 L 8.000 50.050 L 8.050 47.100 L 3.100 47.050 L 3.000 50.050 L 3.050 47.100 L 0.050 47.000 L 3.000 47.050 L 3.050 43.100 L 0.000 43.050 L 0.050 38.000 L 3.000 38.050 L 3.050 33.100 L 0.000 33.050 L 0.050 28.000 L 3.000 28.050 L 3.050 23.100 L 0.000 23.050 L 0.050 18.000 L 3.000 18.050 L 3.050 13.100 L 0.000 13.050 L 0.050 8.000 L 3.000 8.050 L 3.050 3.100 L 0.050 3.100 Z" stroke="red" stroke-width="0.100" fill="none"/></g><g id="sample-box.front" transform="translate(220.400 0)"><path d="M 0.050 3.000 L 3.000 3.050 L 3.100 0.050 L 3.050 3.000 L 8.000 3.050 L 8.050 0.000 L 13.100 0.050 L 13.050 3.000 L 18.000 3.050 L 18.050 0.000 L 23.100 0.050 L 23.050 3.000 L 28.000 3.050 L 28.050 0.000 L 33.100 0.050 L 33.050 3.000 L 38.000 3.050 L 38.050 0.000 L 43.100 0.050 L 43.050 3.000 L 47.000 3.050 L 47.100 0.050 L 47.050 3.000 L 50.100 3.050 L 50.050 8.100 L 47.100 8.050 L 47.050 13.000 L 50.100 13.050 L 50.050 18.100 L 47.100 18.050 L 47.050 23.000 L 50.100 23.050 L 50.050 28.100 L 47.100 28.050 L 47.050 33.000 L 50.100 33.050 L 50.050 38.100 L 47.100 38.050 L 47.050 43.000 L 50.100 43.050 L 50.050 47.100 L 47.100 47.050 L 47.000 50.050 L 47.050 47.100 L 43.100 47.050 L 43.050 50.100 L 38.000 50.050 L 38.050 47.100 L 33.100 47.050 L 33.050 50.100 L 28.000 50.050 L 28.050 47.100 L 23.100 47.050 L 23.050 50.100 L 18.000 50.050 L 18.050 47.100 L 13.100 47.050 L 13.050 50.100 L 8.000 50.050 L 8.050 47.100 L 3.100 47.050 L 3.000 50.050 L 3.050 47.100 L 0.000 47.050 L 0.050 43.000 L 3.000 43.050 L 3.050 38.100 L 0.000 38.050 L 0.050 33.000 L 3.000 33.050 L 3.050 28.100 L 0.000 28.050 L 0.050 23.000 L 3.000 23.050 L 3.050 18.100 L 0.000 18.050 L 0.050 13.000 L 3.000 13.050 L 3.050 8.100 L 0.000 8.050 L 0.000 3.050 Z" stroke="red" stroke-width="0.100" fill="none"/></g><g id="sample-box.back" transform="translate(275.500 0)"><path d="M 0.050 3.000 L 3.000 3.050 L 3.100 0.050 L 3.050 3.000 L 8.000 3.050 L 8.050 0.000 L 13.100 0.050 L 13.050 3.000 L 18.000 3.050 L 18.050 0.000 L 23.100 0.050 L 23.050 3.000 L 28.000 3.050 L 28.050 0.000 L 33.100 0.050 L 33.050 3.000 L 38.000 3.050 L 38.050 0.000 L 43.100 0.050 L 43.050 3.000 L 47.000 3.050 L 47.100 0.050 L 47.050 3.000 L 50.100 3.050 L 50.050 8.100 L 47.100 8.050 L 47.050 13.000 L 50.100 13.050 L 50.050 18.100 L 47.100 18.050 L 47.050 23.000 L 50.100 23.050 L 50.050 28.100 L 47.100 28.050 L 47.050 33.000 L 50.100 33.050 L 50.050 38.100 L 47.100 38.050 L 47.050 43.000 L 50.100 43.050 L 50.050 47.100 L 47.100 47.050 L 47.000 50.050 L 47.050 47.100 L 43.100 47.050 L 43.050 50.100 L 38.000 50.050 L 38.050 47.100 L 33.100 47.050 L 33.050 50.100 L 28.000 50.050 L 28.050 47.100 L 23.100 47.050 L 23.050 50.100 L 18.000 50.050 L 18.050 47.100 L 13.100 47.050 L 13.050 50.100 L 8.000 50.050 L 8.050 47.100 L 3.100 47.050 L 3.000 50.050 L 3.050 47.100 L 0.000 47.050 L 0.050 43.000 L 3.000 43.050 L 3.050 38.100 L 0.000 38.050 L 0.050 33.000 L 3.000 33.050 L 3.050 28.100 L 0.000 28.050 L 0.050 23.000 L 3.000 23.050 L 3.050 18.100 L 0.000 18.050 L 0.050 13.000 L 3.000 13.050 L 3.050 8.100 L 0.000 8.050 L 0.000 3.050 Z" stroke="red" stroke-width="0.100" fill="none"/></g></g></svg>