<svg xmlns="http://www.w3.org/2000/svg" width="300.000mm" height="300.000mm" viewBox="0 0 300.000 300.000"><g transform="translate(0 300.000) scale(1 -1)"><g id="page-0" transform="translate(0.000 0)"><rect x="0" y="0" width="300.000" height="300.000" stroke="green" stroke-width="0.100" fill="none"/><g id="frame.top" transform="translate(5.000 5.000)"><path d="M 0.000 3.050 L 0.050 0.000 L 3.050 0.000 L 27.050 0.000 L 30.100 0.050 L 30.100 3.050 L 30.050 7.600 L 27.100 7.550 L 27.050 12.500 L 30.100 12.550 L 30.050 17.600 L 27.100 17.550 L 27.050 22.500 L 30.100 22.550 L 30.050 27.600 L 27.100 27.550 L 27.050 32.500 L 30.100 32.550 L 30.100 37.050 L 30.050 40.100 L 27.050 40.100 L 22.500 40.050 L 22.550 37.100 L 17.600 37.050 L 17.550 40.100 L 12.500 40.050 L 12.550 37.100 L 7.600 37.050 L 7.550 40.100 L 3.050 40.100 L 0.000 40.050 L 0.000 37.050 L 0.050 32.500 L 3.000 32.550 L 3.050 27.600 L 0.000 27.550 L 0.050 22.500 L 3.000 22.550 L 3.050 17.600 L 0.000 17.550 L 0.050 12.500 L 3.000 12.550 L 3.050 7.600 L 0.000 7.550 L 0.000 3.050 Z" stroke="red" stroke-width="0.100" fill="none"/></g><g id="frame.bottom" transform="translate(36.100 5.000)"><path d="M 0.000 3.050 L 0.050 0.000 L 3.050 0.000 L 27.050 0.000 L 30.100 0.050 L 30.100 3.050 L 30.050 7.600 L 27.100 7.550 L 27.050 12.500 L 30.100 12.550 L 30.050 17.600 L 27.100 17.550 L 27.050 22.500 L 30.100 22.550 L 30.050 27.600 L 27.100 27.550 L 27.050 32.500 L 30.100 32.550 L 30.100 37.050 L 30.050 40.100 L 27.050 40.100 L 22.500 40.050 L 22.550 37.100 L 17.600 37.050 L 17.550 40.100 L 12.500 40.050 L 12.550 37.100 L 7.600 37.050 L 7.550 40.100 L 3.050 40.100 L 0.000 40.050 L 0.000 37.050 L 0.050 32.500 L 3.000 32.550 L 3.050 27.600 L 0.000 27.550 L 0.050 22.500 L 3.000 22.550 L 3.050 17.600 L 0.000 17.550 L 0.050 12.500 L 3.000 12.550 L 3.050 7.600 L 0.000 7.550 L 0.000 3.050 Z" stroke="red" stroke-width="0.100" fill="none"/></g><g id="frame.left" transform="translate(67.200 5.000) translate(30.100 0) rotate(90)"><path d="M 0.050 3.000 L 3.050 3.000 L 7.500 3.050 L 7.550 0.000 L 12.600 0.050 L 12.550 3.000 L 17.500 3.050 L 17.550 0.000 L 22.600 0.050 L 22.550 3.000 L 27.500 3.050 L 27.550 0.000 L 32.600 0.050 L 32.550 3.000 L 37.100 3.050 L 37.050 7.500 L 40.100 7.550 L 40.050 12.600 L 37.100 12.550 L 37.050 17.500 L 40.100 17.550 L 40.050 22.600 L 37.100 22.550 L 37.050 27.100 L 32.600 27.050 L 32.550 30.100 L 27.500 30.050 L 27.550 27.100 L 22.600 27.050 L 22.550 30.100 L 17.500 30.050 L 17.550 27.100 L 12.600 27.050 L 12.550 30.100 L 7.500 30.050 L 7.550 27.100 L 3.050 27.100 L 0.000 27.050 L 0.000 3.050 Z" stroke="red" stroke-width="0.100" fill="none"/></g><g id="frame.right" transform="translate(98.300 5.000) translate(30.100 0) rotate(90)"><path d="M 0.050 3.000 L 3.050 3.000 L 7.500 3.050 L 7.550 0.000 L 12.600 0.050 L 12.550 3.000 L 17.500 3.050 L 17.550 0.000 L 22.600 0.050 L 22.550 3.000 L 27.500 3.050 L 27.550 0.000 L 32.600 0.050 L 32.550 3.000 L 37.100 3.050 L 37.050 7.500 L 40.100 7.550 L 40.050 12.600 L 37.100 12.550 L 37.050 17.500 L 40.100 17.550 L 40.050 22.600 L 37.100 22.550 L 37.050 27.100 L 32.600 27.050 L 32.550 30.100 L 27.500 30.050 L 27.550 27.100 L 22.600 27.050 L 22.550 30.100 L 17.500 30.050 L 17.550 27.100 L 12.600 27.050 L 12.550 30.100 L 7.500 30.050 L 7.550 27.100 L 3.050 27.100 L 0.000 27.050 L 0.000 3.050 Z" stroke="red" stroke-width="0.100" fill="none"/></g><g id="frame/0/drawer.bottom" transform="translate(129.400 5.000)"><path d="M 0.000 3.050 L 0.050 0.000 L 3.050 0.000 L 10.100 0.050 L 10.050 3.000 L 15.000 3.050 L 15.050 0.000 L 22.050 0.000 L 25.100 0.050 L 25.100 3.050 L 25.050 10.100 L 22.100 10.050 L 22.050 15.000 L 25.100 15.050 L 25.050 20.100 L 22.100 20.050 L 22.050 25.000 L 25.100 25.050 L 25.100 32.050 L 25.050 35.100 L 22.050 35.100 L 15.000 35.050 L 15.050 32.100 L 10.100 32.050 L 10.050 35.100 L 3.050 35.100 L 0.000 35.050 L 0.000 32.050 L 0.050 25.000 L 3.000 25.050 L 3.050 20.100 L 0.000 20.050 L 0.050 15.000 L 3.000 15.050 L 3.050 10.100 L 0.000 10.050 L 0.000 3.050 Z" stroke="red" stroke-width="0.100" fill="none"/></g><g id="frame/0/drawer.left" transform="translate(155.500 5.000) translate(25.100 0) rotate(90)"><path d="M 3.050 3.000 L 10.000 3.050 L 10.050 0.000 L 15.100 0.050 L 15.050 3.000 L 20.000 3.050 L 20.050 0.000 L 25.100 0.050 L 25.050 3.000 L 32.100 3.050 L 32.050 10.000 L 35.100 10.050 L 35.050 15.100 L 32.100 15.050 L 32.100 22.050 L 32.050 25.100 L 3.000 25.050 L 3.000 22.050 L 3.050 15.100 L 0.000 15.050 L 0.050 10.000 L 3.000 10.050 L 3.000 3.050 Z" stroke="red" stroke-width="0.100" fill="none"/></g><g id="frame/0/drawer.right" transform="translate(181.600 5.000) translate(25.100 0) rotate(90)"><path d="M 3.050 3.000 L 10.000 3.050 L 10.050 0.000 L 15.100 0.050 L 15.050 3.000 L 20.000 3.050 L 20.050 0.000 L 25.100 0.050 L 25.050 3.000 L 32.100 3.050 L 32.050 10.000 L 35.100 10.050 L 35.050 15.100 L 32.100 15.050 L 32.100 22.050 L 32.050 25.100 L 3.000 25.050 L 3.000 22.050 L 3.050 15.100 L 0.000 15.050 L 0.050 10.000 L 3.000 10.050 L 3.000 3.050 Z" stroke="red" stroke-width="0.100" fill="none"/></g><g id="frame.back" transform="translate(207.700 5.000)"><path d="M 0.050 3.000 L 3.050 3.000 L 7.500 3.050 L 7.550 0.000 L 12.600 0.050 L 12.550 3.000 L 17.500 3.050 L 17.550 0.000 L 22.600 0.050 L 22.550 3.000 L 27.050 3.000 L 30.100 3.050 L 30.050 7.600 L 27.100 7.550 L 27.050 12.500 L 30.100 12.550 L 30.050 17.600 L 27.100 17.550 L 27.050 22.500 L 30.100 22.550 L 30.050 27.100 L 27.050 27.100 L 22.600 27.050 L 22.550 30.100 L 17.500 30.050 L 17.550 27.100 L 12.600 27.050 L 12.550 30.100 L 7.500 30.050 L 7.550 27.100 L 3.050 27.100 L 0.000 27.050 L 0.050 22.500 L 3.000 22.550 L 3.050 17.600 L 0.000 17.550 L 0.050 12.500 L 3.000 12.550 L 3.050 7.600 L 0.000 7.550 L 0.000 3.050 Z" stroke="red" stroke-width="0.100" fill="none"/></g><g id="frame/0/drawer.front" transform="translate(238.800 5.000)"><path d="M 0.050 3.000 L 3.050 3.000 L 10.000 3.050 L 10.050 0.000 L 15.100 0.050 L 15.050 3.000 L 22.050 3.000 L 25.100 3.050 L 25.050 10.100 L 22.100 10.050 L 22.050 15.000 L 25.100 15.050 L 25.100 22.050 L 25.050 25.100 L 22.050 25.100 L 3.050 25.100 L 0.000 25.050 L 0.000 22.050 L 0.050 15.000 L 3.000 15.050 L 3.050 10.100 L 0.000 10.050 L 0.000 3.050 Z" stroke="red" stroke-width="0.100" fill="none"/><path d="M 2.500 30.050 A -10.050 -10.050 0 0 1 22.600 30.050 L 2.500 30.050 Z" stroke="blue" stroke-width="0.100" fill="none"/></g><g id="frame/0/drawer.back" transform="translate(264.900 5.000)"><path d="M 0.050 3.000 L 3.050 3.000 L 10.000 3.050 L 10.050 0.000 L 15.100 0.050 L 15.050 3.000 L 22.050 3.000 L 25.100 3.050 L 25.050 10.100 L 22.100 10.050 L 22.050 15.000 L 25.100 15.050 L 25.100 22.050 L 25.050 25.100 L 22.050 25.100 L 3.050 25.100 L 0.000 25.050 L 0.000 22.050 L 0.050 15.000 L 3.000 15.050 L 3.050 10.100 L 0.000 10.050 L 0.000 3.050 Z" stroke="red" stroke-width="0.100" fill="none"/></g></g></g></svg>